<svg xmlns="http://www.w3.org/2000/svg" viewBox="0 0 180 180">
  <defs>
    <linearGradient id="bg" x1="0" y1="0" x2="1" y2="1">
      <stop offset="0%" stop-color="#3977ff"/>
      <stop offset="100%" stop-color="#6c5ce7"/>
    </linearGradient>
    <filter id="shadow" x="-20%" y="-20%" width="140%" height="140%">
      <feDropShadow dx="0" dy="8" stdDeviation="8" flood-color="#153a8a" flood-opacity="0.28"/>
    </filter>
  </defs>
  <rect width="180" height="180" rx="42" fill="url(#bg)"/>
  <circle cx="144" cy="34" r="18" fill="#ffffff" opacity="0.18"/>
  <circle cx="30" cy="150" r="24" fill="#ffffff" opacity="0.12"/>
  <g filter="url(#shadow)">
    <path d="M43 50c0-9 7-16 16-16h70c7 0 12 5 12 12v88c0 7-5 12-12 12H58c-8 0-15-7-15-15V50z" fill="#ffffff"/>
    <path d="M58 34h71c7 0 12 5 12 12v7H65c-7 0-12 5-12 12v66c0 8 6 15 14 15h-9c-8 0-15-7-15-15V49c0-8 7-15 15-15z" fill="#dbeafe"/>
    <path d="M66 66h50M66 84h36M66 102h48" stroke="#3977ff" stroke-width="8" stroke-linecap="round"/>
  </g>
  <text x="90" y="135" text-anchor="middle" font-family="Arial, Helvetica, sans-serif" font-size="38" font-weight="900" fill="#1d4ed8">EN</text>
  <text x="139" y="139" text-anchor="middle" font-family="Arial, Helvetica, sans-serif" font-size="18" font-weight="900" fill="#6c5ce7">AI</text>
</svg>